<svg width="118" height="13" viewBox="0 0 118 13" fill="none" xmlns="http://www.w3.org/2000/svg">
<path opacity="0.5" d="M1.8 11.218C0.633333 10.0327 0.05 8.59533 0.05 6.906C0.05 5.21667 0.633333 3.77933 1.8 2.594C2.95733 1.418 4.39933 0.83 6.126 0.83C7.85267 0.83 9.29467 1.418 10.452 2.594C11.6187 3.77933 12.202 5.21667 12.202 6.906C12.202 8.59533 11.6187 10.0327 10.452 11.218C9.29467 12.394 7.85267 12.982 6.126 12.982C4.39933 12.982 2.95733 12.394 1.8 11.218ZM6.126 12.002C7.582 12.002 8.79067 11.5073 9.752 10.518C10.732 9.52867 11.222 8.32933 11.222 6.92C11.222 5.50133 10.732 4.29733 9.752 3.308C8.78133 2.30933 7.57267 1.81 6.126 1.81C4.67 1.81 3.45667 2.30933 2.486 3.308C1.51533 4.30667 1.03 5.51067 1.03 6.92C1.03 8.32933 1.51533 9.52867 2.486 10.518C3.44733 11.5073 4.66067 12.002 6.126 12.002ZM8.128 8.278L8.66 9.09C8.11867 9.79 7.31133 10.14 6.238 10.14C5.23 10.14 4.41333 9.84133 3.788 9.244C3.172 8.64667 2.864 7.84867 2.864 6.85C2.864 5.926 3.16733 5.14667 3.774 4.512C4.38067 3.87733 5.14133 3.56 6.056 3.56C7.15733 3.56 7.98333 3.83533 8.534 4.386L8.016 5.268C7.53067 4.82933 6.92867 4.61 6.21 4.61C5.622 4.61 5.11333 4.82467 4.684 5.254C4.264 5.674 4.054 6.206 4.054 6.85C4.054 7.53133 4.26867 8.07267 4.698 8.474C5.13667 8.88467 5.678 9.09 6.322 9.09C7.05 9.09 7.652 8.81933 8.128 8.278ZM23.0266 8.922L22.2706 9.58L19.6806 6.528V6.472L22.3126 3.448L23.0406 4.092L20.9686 6.5L23.0266 8.922ZM20.3666 8.922L19.6106 9.58L17.0206 6.528V6.472L19.6526 3.448L20.3806 4.092L18.3086 6.5L20.3666 8.922ZM32.5085 10H31.3185V1.32H27.7625L27.5945 3.168C27.4825 4.38133 27.3378 5.422 27.1605 6.29C26.9831 7.14867 26.7918 7.82533 26.5865 8.32C26.3811 8.81467 26.1385 9.19733 25.8585 9.468C25.5878 9.73867 25.3218 9.90667 25.0605 9.972C24.7991 10.0373 24.5005 10.0467 24.1645 10L24.1785 8.81C24.3745 8.838 24.5425 8.824 24.6825 8.768C24.8225 8.70267 24.9811 8.558 25.1585 8.334C25.3545 8.10067 25.5318 7.75067 25.6905 7.284C26.0638 6.23867 26.3345 4.53067 26.5025 2.16L26.6425 0.199999H32.5085V10ZM35.3867 10H34.1827L38.3967 0.143999H39.4187L43.6327 10H42.3587L41.0987 7.032H36.6327L35.3867 10ZM40.6367 5.912L38.8727 1.726L37.1087 5.912H40.6367ZM45.3138 9.986V0.213999C46.6111 0.176666 47.5071 0.158 48.0018 0.158C49.0658 0.158 49.8544 0.372667 50.3678 0.802C50.8904 1.222 51.1518 1.81467 51.1518 2.58C51.1518 3.14933 51.0024 3.62533 50.7038 4.008C50.4051 4.39067 49.9944 4.67067 49.4718 4.848V4.876C50.1064 4.97867 50.6011 5.23067 50.9558 5.632C51.3198 6.03333 51.5018 6.556 51.5018 7.2C51.5018 8.13333 51.1844 8.84267 50.5498 9.328C49.9151 9.804 49.0471 10.042 47.9458 10.042C46.8724 10.042 45.9951 10.0233 45.3138 9.986ZM48.0858 5.534H46.5038V8.866C46.8864 8.90333 47.3904 8.922 48.0158 8.922C48.7531 8.922 49.3178 8.77267 49.7098 8.474C50.1111 8.166 50.3118 7.718 50.3118 7.13C50.3118 6.61667 50.1158 6.22467 49.7238 5.954C49.3411 5.674 48.7951 5.534 48.0858 5.534ZM47.9738 1.278C47.6938 1.278 47.2038 1.292 46.5038 1.32V4.484H48.0718C48.6224 4.484 49.0751 4.33933 49.4298 4.05C49.7844 3.75133 49.9618 3.35 49.9618 2.846C49.9618 1.80067 49.2991 1.278 47.9738 1.278ZM60.9544 2.16L55.0044 10H53.9544V0.199999H55.1444V8.04L61.0944 0.199999H62.1444V10H60.9544V2.16ZM67.1833 1.32H63.7533V0.199999H71.8033V1.32H68.3733V10H67.1833V1.32ZM72.3828 10H71.1788L75.3928 0.143999H76.4148L80.6288 10H79.3548L78.0948 7.032H73.6288L72.3828 10ZM77.6328 5.912L75.8688 1.726L74.1048 5.912H77.6328ZM87.6298 6.472V6.528L85.0398 9.58L84.2838 8.922L86.3418 6.5L84.2698 4.092L84.9978 3.448L87.6298 6.472ZM84.9698 6.472V6.528L82.3798 9.58L81.6238 8.922L83.6818 6.5L81.6098 4.092L82.3378 3.448L84.9698 6.472ZM98.0162 10H92.0382V9.09C93.3075 7.84867 94.2409 6.85933 94.8382 6.122C95.8929 4.79667 96.4202 3.686 96.4202 2.79C96.4202 2.32333 96.2755 1.94533 95.9862 1.656C95.7062 1.35733 95.3189 1.208 94.8242 1.208C94.3949 1.208 94.0169 1.348 93.6902 1.628C93.3729 1.89867 93.1675 2.28133 93.0742 2.776L92.1222 2.384C92.2342 1.684 92.5469 1.12867 93.0602 0.717999C93.5829 0.298 94.2035 0.0879999 94.9222 0.0879999C95.7809 0.0879999 96.4435 0.335333 96.9102 0.83C97.3769 1.32467 97.6102 1.90333 97.6102 2.566C97.6102 3.826 97.0082 5.16533 95.8042 6.584C95.2629 7.21867 94.8289 7.69467 94.5022 8.012C94.2222 8.292 93.8862 8.60467 93.4942 8.95H98.0162V10ZM105.917 5.1C105.917 6.68667 105.651 7.91867 105.119 8.796C104.596 9.67333 103.812 10.112 102.767 10.112C101.712 10.112 100.91 9.664 100.359 8.768C99.827 7.86267 99.561 6.64 99.561 5.1C99.561 3.56933 99.8223 2.35133 100.345 1.446C100.877 0.540667 101.675 0.0879999 102.739 0.0879999C103.812 0.0879999 104.606 0.540667 105.119 1.446C105.651 2.342 105.917 3.56 105.917 5.1ZM102.767 9.062C103.448 9.062 103.943 8.73533 104.251 8.082C104.568 7.42867 104.727 6.43467 104.727 5.1C104.727 3.77467 104.564 2.78533 104.237 2.132C103.92 1.46933 103.42 1.138 102.739 1.138C101.414 1.138 100.751 2.45867 100.751 5.1C100.751 7.74133 101.423 9.062 102.767 9.062ZM113.301 10H107.323V9.09C108.593 7.84867 109.526 6.85933 110.123 6.122C111.178 4.79667 111.705 3.686 111.705 2.79C111.705 2.32333 111.561 1.94533 111.271 1.656C110.991 1.35733 110.604 1.208 110.109 1.208C109.68 1.208 109.302 1.348 108.975 1.628C108.658 1.89867 108.453 2.28133 108.359 2.776L107.407 2.384C107.519 1.684 107.832 1.12867 108.345 0.717999C108.868 0.298 109.489 0.0879999 110.207 0.0879999C111.066 0.0879999 111.729 0.335333 112.195 0.83C112.662 1.32467 112.895 1.90333 112.895 2.566C112.895 3.826 112.293 5.16533 111.089 6.584C110.548 7.21867 110.114 7.69467 109.787 8.012C109.507 8.292 109.171 8.60467 108.779 8.95H113.301V10ZM115.154 2.874L114.566 1.964L116.918 0.143999H117.702V10H116.582V1.754L115.154 2.874Z" fill="#333333"/>
</svg>
