<svg width="129" height="13" viewBox="0 0 129 13" fill="none" xmlns="http://www.w3.org/2000/svg">
<path opacity="0.5" d="M1.76547 6.234V10H0.575469V0.199999C0.967469 0.199999 1.3828 0.195333 1.82147 0.186C2.26014 0.176666 2.6988 0.172 3.13747 0.172C4.42547 0.172 5.34947 0.461333 5.90947 1.04C6.4788 1.60933 6.76347 2.33267 6.76347 3.21C6.76347 4.05933 6.45547 4.78733 5.83947 5.394C5.24214 5.99133 4.37414 6.29 3.23547 6.29C2.63814 6.29 2.14814 6.27133 1.76547 6.234ZM3.24947 1.292C3.08147 1.292 2.5868 1.30133 1.76547 1.32V5.1C2.35347 5.14667 2.82947 5.17 3.19347 5.17C3.91214 5.17 4.4768 4.99733 4.88747 4.652C5.29814 4.29733 5.50347 3.812 5.50347 3.196C5.50347 2.58933 5.31214 2.12267 4.92947 1.796C4.55614 1.46 3.99614 1.292 3.24947 1.292ZM8.21509 5.03L7.92109 4.134C8.54643 3.75133 9.24643 3.56 10.0211 3.56C10.8704 3.56 11.4864 3.77 11.8691 4.19C12.2518 4.61 12.4431 5.25867 12.4431 6.136V10H11.3791V9.188C10.8844 9.79467 10.2124 10.098 9.36309 10.098C8.78443 10.098 8.31776 9.92533 7.96309 9.58C7.60843 9.22533 7.43109 8.74933 7.43109 8.152C7.43109 7.536 7.65043 7.05067 8.08909 6.696C8.52776 6.332 9.10176 6.15 9.81109 6.15C10.4738 6.15 10.9964 6.28533 11.3791 6.556C11.3791 5.84667 11.2811 5.338 11.0851 5.03C10.8891 4.722 10.5111 4.568 9.95109 4.568C9.38176 4.568 8.80309 4.722 8.21509 5.03ZM9.75509 9.09C10.3804 9.09 10.9218 8.81933 11.3791 8.278V7.48C10.9871 7.2 10.5158 7.06 9.96509 7.06C9.58243 7.06 9.26043 7.15333 8.99909 7.34C8.74709 7.51733 8.62109 7.76933 8.62109 8.096C8.62109 8.404 8.71909 8.64667 8.91509 8.824C9.12043 9.00133 9.40043 9.09 9.75509 9.09ZM16.4045 10.14C15.9285 10.14 15.4245 10.0607 14.8925 9.902C14.3792 9.734 14.0152 9.52867 13.8005 9.286L14.3745 8.446C14.6265 8.65133 14.9252 8.81933 15.2705 8.95C15.6252 9.07133 15.9472 9.132 16.2365 9.132C16.7219 9.132 17.1185 9.03867 17.4265 8.852C17.7345 8.656 17.8885 8.404 17.8885 8.096C17.8885 7.83467 17.7765 7.634 17.5525 7.494C17.3379 7.354 17.0392 7.284 16.6565 7.284H15.5925V6.374H16.5865C16.9039 6.374 17.1652 6.29 17.3705 6.122C17.5759 5.94467 17.6785 5.73 17.6785 5.478C17.6785 5.198 17.5572 4.97867 17.3145 4.82C17.0719 4.652 16.7452 4.568 16.3345 4.568C15.6719 4.568 15.0419 4.80133 14.4445 5.268L14.0105 4.4C14.2625 4.13867 14.6125 3.93333 15.0605 3.784C15.5179 3.63467 15.9985 3.56 16.5025 3.56C17.2492 3.56 17.8279 3.70933 18.2385 4.008C18.6585 4.30667 18.8685 4.722 18.8685 5.254C18.8685 5.982 18.4999 6.47667 17.7625 6.738V6.766C18.1732 6.81267 18.4952 6.976 18.7285 7.256C18.9619 7.52667 19.0785 7.858 19.0785 8.25C19.0785 8.82867 18.8312 9.29067 18.3365 9.636C17.8512 9.972 17.2072 10.14 16.4045 10.14ZM21.9053 12.8H20.7853V3.7H21.9053V4.442C22.1293 4.18067 22.4373 3.97067 22.8293 3.812C23.2213 3.644 23.6273 3.56 24.0473 3.56C24.9433 3.56 25.648 3.85867 26.1613 4.456C26.6933 5.044 26.9593 5.80933 26.9593 6.752C26.9593 7.71333 26.656 8.52067 26.0493 9.174C25.452 9.818 24.6633 10.14 23.6833 10.14C22.9273 10.14 22.3347 9.99533 21.9053 9.706V12.8ZM23.7253 4.61C22.9787 4.61 22.372 4.89933 21.9053 5.478V8.6C22.4 8.92667 22.96 9.09 23.5853 9.09C24.248 9.09 24.7753 8.88 25.1673 8.46C25.5687 8.03067 25.7693 7.47533 25.7693 6.794C25.7693 6.13133 25.5873 5.604 25.2233 5.212C24.8593 4.81067 24.36 4.61 23.7253 4.61ZM28.9006 5.03L28.6066 4.134C29.232 3.75133 29.932 3.56 30.7066 3.56C31.556 3.56 32.172 3.77 32.5546 4.19C32.9373 4.61 33.1286 5.25867 33.1286 6.136V10H32.0646V9.188C31.57 9.79467 30.898 10.098 30.0486 10.098C29.47 10.098 29.0033 9.92533 28.6486 9.58C28.294 9.22533 28.1166 8.74933 28.1166 8.152C28.1166 7.536 28.336 7.05067 28.7746 6.696C29.2133 6.332 29.7873 6.15 30.4966 6.15C31.1593 6.15 31.682 6.28533 32.0646 6.556C32.0646 5.84667 31.9666 5.338 31.7706 5.03C31.5746 4.722 31.1966 4.568 30.6366 4.568C30.0673 4.568 29.4886 4.722 28.9006 5.03ZM30.4406 9.09C31.066 9.09 31.6073 8.81933 32.0646 8.278V7.48C31.6726 7.2 31.2013 7.06 30.6506 7.06C30.268 7.06 29.946 7.15333 29.6846 7.34C29.4326 7.51733 29.3066 7.76933 29.3066 8.096C29.3066 8.404 29.4046 8.64667 29.6006 8.824C29.806 9.00133 30.086 9.09 30.4406 9.09ZM39.8761 0.0599995L40.4781 0.942C40.2541 1.25 39.9834 1.46 39.6661 1.572C39.3208 1.69333 38.9288 1.78667 38.4901 1.852C38.0608 1.91733 37.6548 2.034 37.2721 2.202C36.3201 2.64067 35.7881 3.65333 35.6761 5.24H35.7041C35.9094 4.80133 36.2408 4.44667 36.6981 4.176C37.1648 3.90533 37.6641 3.77 38.1961 3.77C39.0921 3.77 39.8014 4.05467 40.3241 4.624C40.8561 5.19333 41.1221 5.954 41.1221 6.906C41.1221 7.802 40.8188 8.56733 40.2121 9.202C39.6148 9.82733 38.8401 10.14 37.8881 10.14C36.8614 10.14 36.0494 9.79 35.4521 9.09C34.8548 8.39933 34.5561 7.44267 34.5561 6.22C34.5561 3.49467 35.3354 1.80067 36.8941 1.138C37.2488 0.979333 37.6594 0.862666 38.1261 0.787999C38.4901 0.722666 38.7514 0.671333 38.9101 0.634C39.0688 0.596666 39.2368 0.531333 39.4141 0.438C39.6008 0.344666 39.7548 0.218666 39.8761 0.0599995ZM35.7461 6.43C35.7461 7.23267 35.9421 7.87667 36.3341 8.362C36.7261 8.84733 37.2348 9.09 37.8601 9.09C38.4668 9.09 38.9614 8.88467 39.3441 8.474C39.7361 8.07267 39.9321 7.56867 39.9321 6.962C39.9321 6.318 39.7501 5.8 39.3861 5.408C39.0314 5.016 38.5414 4.82 37.9161 4.82C37.3468 4.82 36.8708 4.97867 36.4881 5.296C36.0868 5.62267 35.8394 6.00067 35.7461 6.43ZM43.2327 9.216C42.6167 8.58133 42.3087 7.79267 42.3087 6.85C42.3087 5.898 42.6167 5.114 43.2327 4.498C43.858 3.87267 44.67 3.56 45.6687 3.56C46.6674 3.56 47.4747 3.87267 48.0907 4.498C48.716 5.114 49.0287 5.898 49.0287 6.85C49.0287 7.802 48.716 8.59067 48.0907 9.216C47.4747 9.832 46.6674 10.14 45.6687 10.14C44.6794 10.14 43.8674 9.832 43.2327 9.216ZM44.1147 5.24C43.704 5.65067 43.4987 6.18733 43.4987 6.85C43.4987 7.51267 43.6994 8.04933 44.1007 8.46C44.5114 8.88 45.034 9.09 45.6687 9.09C46.3034 9.09 46.8214 8.88467 47.2227 8.474C47.6334 8.054 47.8387 7.51267 47.8387 6.85C47.8387 6.206 47.6334 5.66933 47.2227 5.24C46.8214 4.82 46.3034 4.61 45.6687 4.61C45.034 4.61 44.516 4.82 44.1147 5.24ZM51.9106 4.82H49.6006V3.7H55.3406V4.82H53.0306V10H51.9106V4.82ZM56.9006 5.03L56.6066 4.134C57.232 3.75133 57.932 3.56 58.7066 3.56C59.556 3.56 60.172 3.77 60.5546 4.19C60.9373 4.61 61.1286 5.25867 61.1286 6.136V10H60.0646V9.188C59.57 9.79467 58.898 10.098 58.0486 10.098C57.47 10.098 57.0033 9.92533 56.6486 9.58C56.294 9.22533 56.1166 8.74933 56.1166 8.152C56.1166 7.536 56.336 7.05067 56.7746 6.696C57.2133 6.332 57.7873 6.15 58.4966 6.15C59.1593 6.15 59.682 6.28533 60.0646 6.556C60.0646 5.84667 59.9666 5.338 59.7706 5.03C59.5746 4.722 59.1966 4.568 58.6366 4.568C58.0673 4.568 57.4886 4.722 56.9006 5.03ZM58.4406 9.09C59.066 9.09 59.6073 8.81933 60.0646 8.278V7.48C59.6726 7.2 59.2013 7.06 58.6506 7.06C58.268 7.06 57.946 7.15333 57.6846 7.34C57.4326 7.51733 57.3066 7.76933 57.3066 8.096C57.3066 8.404 57.4046 8.64667 57.6006 8.824C57.806 9.00133 58.086 9.09 58.4406 9.09ZM68.7441 10H67.6241V7.34H64.1241V10H63.0041V3.7H64.1241V6.29H67.6241V3.7H68.7441V10ZM71.2737 9.216C70.6577 8.58133 70.3497 7.79267 70.3497 6.85C70.3497 5.898 70.6577 5.114 71.2737 4.498C71.8991 3.87267 72.7111 3.56 73.7097 3.56C74.7084 3.56 75.5157 3.87267 76.1317 4.498C76.7571 5.114 77.0697 5.898 77.0697 6.85C77.0697 7.802 76.7571 8.59067 76.1317 9.216C75.5157 9.832 74.7084 10.14 73.7097 10.14C72.7204 10.14 71.9084 9.832 71.2737 9.216ZM72.1557 5.24C71.7451 5.65067 71.5397 6.18733 71.5397 6.85C71.5397 7.51267 71.7404 8.04933 72.1417 8.46C72.5524 8.88 73.0751 9.09 73.7097 9.09C74.3444 9.09 74.8624 8.88467 75.2637 8.474C75.6744 8.054 75.8797 7.51267 75.8797 6.85C75.8797 6.206 75.6744 5.66933 75.2637 5.24C74.8624 4.82 74.3444 4.61 73.7097 4.61C73.0751 4.61 72.5571 4.82 72.1557 5.24ZM87.5703 10H86.4503V9.202C85.8903 9.80867 85.2229 10.112 84.4483 10.112C83.5243 10.112 82.7869 9.818 82.2363 9.23C81.6856 8.63267 81.4103 7.85333 81.4103 6.892C81.4103 5.912 81.7323 5.114 82.3763 4.498C83.0296 3.87267 83.8556 3.56 84.8543 3.56C85.4889 3.56 86.0209 3.70933 86.4503 4.008V0.199999H87.5703V10ZM84.6583 9.062C85.3489 9.062 85.9463 8.782 86.4503 8.222V5.1C85.9276 4.77333 85.4096 4.61 84.8963 4.61C84.2523 4.61 83.7063 4.82 83.2583 5.24C82.8196 5.65067 82.6003 6.192 82.6003 6.864C82.6003 7.536 82.7869 8.07267 83.1603 8.474C83.5429 8.866 84.0423 9.062 84.6583 9.062ZM92.9702 6.71H89.6242V5.66H92.9702V6.71ZM100.158 8.432L100.508 9.314C99.901 9.86467 99.1124 10.14 98.1417 10.14C97.115 10.14 96.2984 9.84133 95.6917 9.244C95.0757 8.64667 94.7677 7.84867 94.7677 6.85C94.7677 5.90733 95.057 5.12333 95.6357 4.498C96.205 3.87267 96.9984 3.56 98.0157 3.56C98.8557 3.56 99.551 3.83067 100.102 4.372C100.662 4.904 100.942 5.59467 100.942 6.444C100.942 6.71467 100.918 6.96667 100.872 7.2H96.0277C96.0744 7.788 96.2937 8.25 96.6857 8.586C97.087 8.922 97.6004 9.09 98.2257 9.09C99.047 9.09 99.691 8.87067 100.158 8.432ZM97.9597 4.61C97.409 4.61 96.9517 4.764 96.5877 5.072C96.233 5.38 96.023 5.786 95.9577 6.29H99.7797C99.7517 5.76733 99.5744 5.35667 99.2477 5.058C98.9304 4.75933 98.501 4.61 97.9597 4.61ZM106.013 6.71H102.667V5.66H106.013V6.71ZM109.187 10H108.067V3.7H109.187V4.47C109.42 4.20867 109.723 3.99867 110.097 3.84C110.479 3.672 110.862 3.588 111.245 3.588C112.99 3.588 113.863 4.512 113.863 6.36V10H112.743V6.57C112.743 5.282 112.15 4.638 110.965 4.638C110.255 4.638 109.663 4.90867 109.187 5.45V10ZM115.442 9.244C115.442 9.048 115.517 8.87533 115.666 8.726C115.825 8.57667 116.016 8.502 116.24 8.502C116.436 8.502 116.609 8.57667 116.758 8.726C116.908 8.87533 116.982 9.048 116.982 9.244C116.982 9.468 116.912 9.65933 116.772 9.818C116.632 9.96733 116.455 10.042 116.24 10.042C116.016 10.042 115.825 9.96733 115.666 9.818C115.517 9.65933 115.442 9.468 115.442 9.244ZM119.81 10H118.69V3.7H119.81V4.442C120.183 3.87267 120.71 3.588 121.392 3.588C121.83 3.588 122.157 3.66733 122.372 3.826L121.98 4.876C121.709 4.71733 121.424 4.638 121.126 4.638C120.556 4.638 120.118 4.93667 119.81 5.534V10ZM127.857 3.7H128.977V10H127.857V9.104C127.269 9.79467 126.527 10.14 125.631 10.14C124.894 10.14 124.32 9.916 123.909 9.468C123.508 9.01067 123.307 8.33867 123.307 7.452V3.7H124.427V7.2C124.427 8.46 124.969 9.09 126.051 9.09C126.387 9.09 126.719 9.006 127.045 8.838C127.381 8.66067 127.652 8.432 127.857 8.152V3.7Z" fill="#333333"/>
</svg>
